<?xml version="1.0" standalone="yes"?>
<svg xmlns="http://www.w3.org/2000/svg" width="225" height="224">
<path style="fill:#f3f3f3; stroke:none;" d="M0 0L0 1L225 1L208 0L165 0L0 0z"/>
<path style="fill:#e3e3e3; stroke:none;" d="M0 1L0 224L225 224L225 1L0 1z"/>
<path style="fill:#d7d7d7; stroke:none;" d="M85 80L85 81L139 81L124 80L85 80M83 81L84 82L83 81z"/>
<path style="fill:#c8c8c8; stroke:none;" d="M84 81L85 82L84 81z"/>
<path style="fill:#afafaf; stroke:none;" d="M85 81.3333C79.5774 83.2162 79 88.0934 79 93L79 128C79 132.426 77.7249 139.171 80.3333 143C83.5985 147.794 88.9399 147 94 147C106.853 147 126.905 150.866 139 146.667C144.606 144.72 145 139.017 145 134L145 99C145 94.3019 146.078 87.9178 142.833 84C139.467 79.9347 133.686 81 129 81C116.426 81 96.8333 77.2246 85 81.3333z"/>
<path style="fill:#c8c8c8; stroke:none;" d="M139 81L140 82L139 81z"/>
<path style="fill:#d7d7d7; stroke:none;" d="M140 81L141 82L140 81z"/>
<path style="fill:#c8c8c8; stroke:none;" d="M82 82L83 83L82 82z"/>
<path style="fill:#d7d7d7; stroke:none;" d="M141 82L142 83L141 82z"/>
<path style="fill:#c8c8c8; stroke:none;" d="M81 83L82 84L81 83M142 83L143 84L142 83M80 84L81 85L80 84z"/>
<path style="fill:#d7d7d7; stroke:none;" d="M143 84L144 85L143 84M79 85L78 88L79 88L79 85M144 85L145 86L144 85z"/>
<path style="fill:#c8c8c8; stroke:none;" d="M79 86L80 87L79 86M144.333 86.6667L144.667 87.3333L144.333 86.6667M87 87L87 88L137 88L123 87L87 87z"/>
<path style="fill:#d7d7d7; stroke:none;" d="M145.333 87.6667L145.667 88.3333L145.333 87.6667z"/>
<path style="fill:#c8c8c8; stroke:none;" d="M78 88L78 140L79 140L79 103L78 88z"/>
<path style="fill:#d7d7d7; stroke:none;" d="M86 88L87 89L86 88z"/>
<path style="fill:#e3e3e3; stroke:none;" d="M86 139C95.0153 137.97 108.914 118.817 115.167 112.333C117.212 110.213 123.008 103.085 126 103.667C130.184 104.48 134.232 111.818 138 114L137.5 89.1667L126 88L97 88L86.5 89.1667L86 103L86 139z"/>
<path style="fill:#d7d7d7; stroke:none;" d="M137 88L138 89L137 88z"/>
<path style="fill:#c8c8c8; stroke:none;" d="M85 89L86 90L85 89M138 89L139 90L138 89M145 89L145 139L146 139L146 103L145 89z"/>
<path style="fill:#d7d7d7; stroke:none;" d="M85 90L85 138L86 138L86 104L85 90M138 90L137 115C140.596 113.535 140.255 93.1002 138 90M98 93L98 94L102 94L98 93M96 94L97 95L96 94z"/>
<path style="fill:#c8c8c8; stroke:none;" d="M97 94L97 95L108 99C105.204 94.1711 102.219 94 97 94z"/>
<path style="fill:#d7d7d7; stroke:none;" d="M104 94L105 95L104 94M94 95L93 97L94 95z"/>
<path style="fill:#c8c8c8; stroke:none;" d="M95 95L93 98L95 95z"/>
<path style="fill:#afafaf; stroke:none;" d="M96 95.5C86.9367 100.229 95.0117 114.19 104 109.5C113.353 104.62 105.106 90.7489 96 95.5z"/>
<path style="fill:#d7d7d7; stroke:none;" d="M105 95L106 96L105 95M106 96L107 97L106 96M107 97L108 98L107 97M92 98L93 99L92 98z"/>
<path style="fill:#c8c8c8; stroke:none;" d="M92 99L93 100L92 99z"/>
<path style="fill:#d7d7d7; stroke:none;" d="M108 99L109 100L108 99M91 100L91 105L92 105L91 100z"/>
<path style="fill:#c8c8c8; stroke:none;" d="M100 100L101 101L100 100M108 100L108 104L109 104L108 100M98 101L100 104L98 101z"/>
<path style="fill:#d7d7d7; stroke:none;" d="M99 101L99 102L100 104L101 104L102 101L99 101z"/>
<path style="fill:#e3e3e3; stroke:none;" d="M99.6667 102.333L100.333 102.667L99.6667 102.333z"/>
<path style="fill:#c8c8c8; stroke:none;" d="M101 103L102 104L101 103z"/>
<path style="fill:#d7d7d7; stroke:none;" d="M124 103L124 104L128 105L128 104L124 103z"/>
<path style="fill:#c8c8c8; stroke:none;" d="M92.3333 104.667L92.6667 105.333L92.3333 104.667z"/>
<path style="fill:#d7d7d7; stroke:none;" d="M108.333 104.667L108.667 105.333L108.333 104.667z"/>
<path style="fill:#c8c8c8; stroke:none;" d="M123 104L123 105L127 105L123 104M107 105L104 110L107 105M122 105L123 106L122 105M128 105L129 106L128 105z"/>
<path style="fill:#d7d7d7; stroke:none;" d="M92 106L93 107L92 106z"/>
<path style="fill:#c8c8c8; stroke:none;" d="M121 106L122 107L121 106z"/>
<path style="fill:#d7d7d7; stroke:none;" d="M129 106L130 107L129 106z"/>
<path style="fill:#c8c8c8; stroke:none;" d="M93 107L94 108L93 107z"/>
<path style="fill:#d7d7d7; stroke:none;" d="M107 107L108 108L107 107z"/>
<path style="fill:#c8c8c8; stroke:none;" d="M120 107L121 108L120 107z"/>
<path style="fill:#d7d7d7; stroke:none;" d="M130 107L131 108L130 107z"/>
<path style="fill:#c8c8c8; stroke:none;" d="M94 108L95 109L94 108z"/>
<path style="fill:#d7d7d7; stroke:none;" d="M106 108L107 109L106 108z"/>
<path style="fill:#c8c8c8; stroke:none;" d="M119 108L120 109L119 108z"/>
<path style="fill:#d7d7d7; stroke:none;" d="M131 108L132 109L131 108M95 109L96 110L95 109M105 109L106 110L105 109M117 109L118 110L117 109z"/>
<path style="fill:#c8c8c8; stroke:none;" d="M118 109L119 110L118 109z"/>
<path style="fill:#d7d7d7; stroke:none;" d="M132 109L133 110L132 109M96.6667 110.333L97.3333 110.667L96.6667 110.333z"/>
<path style="fill:#c8c8c8; stroke:none;" d="M98 110L98 111L102 111L98 110z"/>
<path style="fill:#d7d7d7; stroke:none;" d="M102.667 110.333L103.333 110.667L102.667 110.333z"/>
<path style="fill:#c8c8c8; stroke:none;" d="M117 110L118 111L117 110z"/>
<path style="fill:#d7d7d7; stroke:none;" d="M133 110L134 111L133 110z"/>
<path style="fill:#c8c8c8; stroke:none;" d="M116 111L117 112L116 111z"/>
<path style="fill:#d7d7d7; stroke:none;" d="M134 111L135 112L134 111M114 112L115 113L114 112z"/>
<path style="fill:#c8c8c8; stroke:none;" d="M115 112L116 113L115 112M120 117L127 113C123.995 110.951 121.583 114.267 120 117z"/>
<path style="fill:#d7d7d7; stroke:none;" d="M135 112L136 113L135 112z"/>
<path style="fill:#c8c8c8; stroke:none;" d="M114 113L115 114L114 113z"/>
<path style="fill:#d7d7d7; stroke:none;" d="M124 113C116.668 120.332 100.867 131.096 98 141L136 141L136 140L99 140L118 121L124 113z"/>
<path style="fill:#e3e3e3; stroke:none;" d="M125 113L99 140L126 140C128.675 140 134.591 141.114 136.833 139.5C138.797 138.086 138 134.091 138 132C138 123.566 132.259 117.202 125 113z"/>
<path style="fill:#d7d7d7; stroke:none;" d="M126 113L127 114L126 113M136 113L137 114L136 113z"/>
<path style="fill:#c8c8c8; stroke:none;" d="M113 114L114 115L113 114z"/>
<path style="fill:#d7d7d7; stroke:none;" d="M127 114L129 116L127 114z"/>
<path style="fill:#c8c8c8; stroke:none;" d="M128 114L129 115L128 114M112 115L113 116L112 115M138 115L139 116L138 115z"/>
<path style="fill:#d7d7d7; stroke:none;" d="M110 116L111 117L110 116z"/>
<path style="fill:#c8c8c8; stroke:none;" d="M111 116L112 117L111 116z"/>
<path style="fill:#d7d7d7; stroke:none;" d="M129 116L130 117L129 116z"/>
<path style="fill:#c8c8c8; stroke:none;" d="M110 117L111 118L110 117z"/>
<path style="fill:#d7d7d7; stroke:none;" d="M130 117L131 118L130 117M108 118L109 119L108 118z"/>
<path style="fill:#c8c8c8; stroke:none;" d="M109 118L110 119L109 118M118 118L119 119L118 118z"/>
<path style="fill:#d7d7d7; stroke:none;" d="M131 118L132 119L131 118z"/>
<path style="fill:#c8c8c8; stroke:none;" d="M108 119L109 120L108 119M117 119L118 120L117 119z"/>
<path style="fill:#d7d7d7; stroke:none;" d="M132 119L133 120L132 119z"/>
<path style="fill:#c8c8c8; stroke:none;" d="M107 120L108 121L107 120M116 120L117 121L116 120z"/>
<path style="fill:#d7d7d7; stroke:none;" d="M133 120L134 121L133 120z"/>
<path style="fill:#c8c8c8; stroke:none;" d="M106 121L107 122L106 121M115 121L116 122L115 121z"/>
<path style="fill:#d7d7d7; stroke:none;" d="M134 121L135 122L134 121z"/>
<path style="fill:#c8c8c8; stroke:none;" d="M105 122L106 123L105 122M114 122L115 123L114 122z"/>
<path style="fill:#d7d7d7; stroke:none;" d="M135 122L136 123L135 122z"/>
<path style="fill:#c8c8c8; stroke:none;" d="M104 123L105 124L104 123M113 123L114 124L113 123z"/>
<path style="fill:#d7d7d7; stroke:none;" d="M136 123L137 124L136 123M102 124L103 125L102 124z"/>
<path style="fill:#c8c8c8; stroke:none;" d="M103 124L104 125L103 124M112 124L113 125L112 124z"/>
<path style="fill:#d7d7d7; stroke:none;" d="M137 124L138 125L137 124z"/>
<path style="fill:#c8c8c8; stroke:none;" d="M102 125L103 126L102 125M111 125L112 126L111 125M138 125L139 126L138 125z"/>
<path style="fill:#d7d7d7; stroke:none;" d="M100 126L101 127L100 126z"/>
<path style="fill:#c8c8c8; stroke:none;" d="M101 126L102 127L101 126M110 126L111 127L110 126z"/>
<path style="fill:#d7d7d7; stroke:none;" d="M138 126L138 138L139 138L138 126z"/>
<path style="fill:#c8c8c8; stroke:none;" d="M100 127L101 128L100 127M109 127L110 128L109 127z"/>
<path style="fill:#d7d7d7; stroke:none;" d="M98 128L99 129L98 128z"/>
<path style="fill:#c8c8c8; stroke:none;" d="M99 128L100 129L99 128M108 128L109 129L108 128M98 129L99 130L98 129M107 129L108 130L107 129z"/>
<path style="fill:#d7d7d7; stroke:none;" d="M96 130L97 131L96 130z"/>
<path style="fill:#c8c8c8; stroke:none;" d="M97 130L98 131L97 130M106 130L107 131L106 130M96 131L97 132L96 131M105 131L106 132L105 131M95 132L96 133L95 132M104 132L105 133L104 132z"/>
<path style="fill:#d7d7d7; stroke:none;" d="M93 133L94 134L93 133z"/>
<path style="fill:#c8c8c8; stroke:none;" d="M94 133L95 134L94 133M103 133L104 134L103 133M93 134L94 135L93 134M102 134L103 135L102 134M92 135L93 136L92 135M101 135L102 136L101 135z"/>
<path style="fill:#d7d7d7; stroke:none;" d="M90 136L89 138L90 136z"/>
<path style="fill:#c8c8c8; stroke:none;" d="M91 136L92 137L91 136M100 136L101 137L100 136M90 137L91 138L90 137M99 137L100 138L99 137M85 138L86 139L85 138M89 138L90 139L89 138M98 138L99 139L98 138M138 138L139 139L138 138z"/>
<path style="fill:#d7d7d7; stroke:none;" d="M86.6667 139.333L87.3333 139.667L86.6667 139.333z"/>
<path style="fill:#c8c8c8; stroke:none;" d="M88 139L89 140L88 139M97.3333 139.667L97.6667 140.333L97.3333 139.667z"/>
<path style="fill:#d7d7d7; stroke:none;" d="M137 139L138 140L137 139M145.333 139.667L145.667 140.333L145.333 139.667M78 140L79 141L78 140z"/>
<path style="fill:#c8c8c8; stroke:none;" d="M136 140L137 141L136 140M144.333 140.667L144.667 141.333L144.333 140.667M79 141L80 142L79 141z"/>
<path style="fill:#d7d7d7; stroke:none;" d="M79 142L82 146L79 142M144 142L145 143L144 142z"/>
<path style="fill:#c8c8c8; stroke:none;" d="M80 143L81 144L80 143M143 143L142 145L143 143M81 144L82 145L81 144z"/>
<path style="fill:#d7d7d7; stroke:none;" d="M143 144L144 145L143 144z"/>
<path style="fill:#c8c8c8; stroke:none;" d="M82 145L83 146L82 145M141 145L142 146L141 145z"/>
<path style="fill:#d7d7d7; stroke:none;" d="M83 146L84 147L83 146z"/>
<path style="fill:#c8c8c8; stroke:none;" d="M84 146L85 147L84 146M139 146L140 147L139 146z"/>
<path style="fill:#d7d7d7; stroke:none;" d="M140 146L141 147L140 146M85 147L85 148L88 148L85 147z"/>
<path style="fill:#c8c8c8; stroke:none;" d="M88 147L88 148L136 148L122 147L88 147z"/>
<path style="fill:#d7d7d7; stroke:none;" d="M136 147L136 148L139 148L136 147z"/>
</svg>
